<svg viewBox="0 0 75.9574 29" x="0" y="0" fill="none" xmlns="http://www.w3.org/2000/svg"><path id="Vector_20" data-node-id="1:1086" fill-rule="evenodd" clip-rule="evenodd" d="M18.4442,2.238v0.056c-0.0328,0.219 -0.131,0.408 -0.2946,0.566c-0.2606,0.252 -0.6005,0.445 -0.925,0.591c-3.3191,1.493 -6.5452,2.944 -9.6784,4.351c-0.1676,0.075 -0.3468,0.142 -0.5377,0.2c-0.823,0.251 -1.6742,0.387 -2.5537,0.408c-0.3384,0.008 -0.6527,-0.025 -0.9428,-0.098c-0.1478,-0.037 -0.2976,-0.102 -0.421,-0.192c-0.2133,-0.154 -0.3283,-0.405 -0.2344,-0.655c0.041,-0.11 0.1018,-0.211 0.1825,-0.305c0.0035,-0.003 0.0054,-0.008 0.0055,-0.014c0,-0.005 -0.0018,-0.01 -0.0051,-0.014l-1.5156,-1.813c-0.0014,-0.002 -0.0023,-0.004 -0.0028,-0.006c-0.0005,-0.002 -0.0005,-0.004 -0.0001,-0.006c0.0005,-0.002 0.0015,-0.004 0.0028,-0.005c0.0014,-0.002 0.0031,-0.003 0.005,-0.004l1.6687,-0.75c0.0098,-0.004 0.0208,-0.005 0.0308,-0.001l2.5093,0.92c0.0048,0.002 0.0099,0.003 0.015,0.002c0.0051,0 0.0102,-0.001 0.0147,-0.003l2.4095,-1.103c0.0019,-0.001 0.0036,-0.003 0.0048,-0.004c0.0013,-0.002 0.0022,-0.004 0.0025,-0.006c0.0004,-0.002 0.0002,-0.004 -0.0004,-0.006c-0.0006,-0.002 -0.0017,-0.004 -0.0033,-0.005l-3.8049,-3.718c-0.001,-0.001 -0.0017,-0.002 -0.002,-0.004c-0.0003,-0.001 -0.0002,-0.002 0.0003,-0.004c0.0005,-0.001 0.0013,-0.002 0.0025,-0.003c0.0011,0 0.0024,-0.001 0.0038,-0.001c0.8979,-0.037 1.7923,-0.074 2.6829,-0.112c0.0406,-0.001 0.0782,0.006 0.1128,0.023c1.5754,0.763 3.1001,1.502 4.5738,2.216c0.0048,0.003 0.01,0.004 0.0153,0.004c0.0054,0 0.0106,-0.001 0.0155,-0.003c0.905,-0.409 1.8069,-0.814 2.7058,-1.216c1.0572,-0.473 2.3184,-0.68 3.3776,-0.081c0.1099,0.062 0.209,0.133 0.2977,0.212c0.1766,0.158 0.2708,0.353 0.2827,0.583zM29.8191,16.91v0.494c-0.0842,3.13 -1.4746,6.069 -3.8531,8.148c-1.9563,1.71 -4.2719,2.692 -6.947,2.948h-2.0581c-1.9158,-0.174 -3.6515,-0.731 -5.207,-1.67c-1.3635,-0.824 -2.498,-1.845 -3.4037,-3.063c-1.3952,-1.878 -2.1304,-3.995 -2.2056,-6.351v-0.52c0.1064,-2.778 1.0957,-5.195 2.9681,-7.251c0.1819,-0.2 0.3889,-0.392 0.5964,-0.585v0c0.0921,-0.085 0.1842,-0.171 0.2743,-0.257c0.2137,-0.205 0.4569,-0.387 0.6969,-0.567h0.0001v0c0.072,-0.054 0.1438,-0.108 0.2144,-0.162c0.2258,-0.173 0.4692,-0.322 0.7156,-0.472h0.0001c0.0633,-0.038 0.1267,-0.077 0.1901,-0.116c0.2284,-0.142 0.4558,-0.266 0.682,-0.374c0.0639,-0.031 0.1271,-0.062 0.19,-0.092c0.2517,-0.122 0.4979,-0.241 0.7621,-0.342c0.3264,-0.125 0.6361,-0.234 0.9289,-0.329c0.1431,-0.046 0.4011,-0.116 0.7741,-0.21c0.2639,-0.067 0.5143,-0.118 0.7514,-0.154c0.0713,-0.011 0.1424,-0.022 0.2131,-0.033c0.2627,-0.042 0.5215,-0.083 0.7782,-0.099c0.0926,-0.006 0.1849,-0.012 0.2772,-0.019c0.3855,-0.027 0.7691,-0.054 1.159,-0.03c0.1019,0.006 0.2031,0.012 0.3041,0.017c0.2353,0.012 0.47,0.023 0.7123,0.051c1.5468,0.178 2.9926,0.624 4.3372,1.338c0.1779,0.094 0.4619,0.26 0.8522,0.497c0.2388,0.145 0.4594,0.31 0.6785,0.474v0c0.0596,0.044 0.1191,0.088 0.1788,0.132c0.1966,0.145 0.3882,0.302 0.5747,0.474c0.0493,0.045 0.0986,0.09 0.1479,0.134c0.2002,0.182 0.3999,0.363 0.591,0.566c1.9748,2.088 3.0167,4.563 3.1258,7.423zM14.9856,9.987c-0.0836,0.18 -0.1653,0.359 -0.2451,0.537c-0.0005,0.001 -0.0008,0.003 -0.0006,0.004c0.0001,0.002 0.0005,0.003 0.0012,0.004c0.0004,0.001 0.0007,0.001 0.0012,0.002c0.0002,0 0.0005,0 0.0008,0c0.0002,0.001 0.0006,0.001 0.0009,0.001c0.0006,0 0.0013,0.001 0.002,0.001c0.0006,0 0.0012,0 0.0019,0c0.8246,0.112 1.6513,0.182 2.4803,0.211c0.0092,0 0.0138,-0.004 0.0138,-0.013v-3.331c0,-0.001 0,-0.001 -0.0001,-0.002c-0.0001,-0.001 -0.0002,-0.001 -0.0004,-0.002c-0.0003,-0.001 -0.0007,-0.001 -0.0011,-0.002c-0.0011,-0.002 -0.0026,-0.004 -0.0045,-0.005c-0.0018,-0.001 -0.0039,-0.002 -0.0061,-0.002c-0.0022,0 -0.0043,0.001 -0.0063,0.002c-0.5299,0.242 -0.9761,0.663 -1.3303,1.116c-0.3606,0.461 -0.6632,0.954 -0.9076,1.479zM21.0609,10.166c-0.2737,-0.618 -0.6139,-1.183 -1.0205,-1.695c-0.3509,-0.442 -0.7731,-0.827 -1.2933,-1.077c-0.0027,-0.002 -0.0056,-0.002 -0.0086,-0.002c-0.003,0 -0.006,0.001 -0.0085,0.003c-0.0025,0.001 -0.0046,0.003 -0.0061,0.006c-0.0015,0.002 -0.0022,0.005 -0.0022,0.008v3.313c0,0.017 0.0088,0.025 0.0263,0.024c0.8142,-0.029 1.6295,-0.099 2.4461,-0.209c0.024,-0.003 0.031,-0.016 0.0208,-0.037c-0.0509,-0.105 -0.1022,-0.217 -0.154,-0.334zM13.2641,10.245c0.3279,-0.869 0.7685,-1.683 1.3215,-2.443c0.0191,-0.026 0.0129,-0.034 -0.0185,-0.023c-0.5641,0.194 -1.1138,0.434 -1.6489,0.718c-0.1971,0.105 -0.3835,0.221 -0.5671,0.336h-0.0001h-0.0001c-0.0653,0.041 -0.1302,0.081 -0.1952,0.121c-0.2415,0.148 -0.4657,0.323 -0.6886,0.498c-0.0895,0.069 -0.1788,0.139 -0.269,0.207c-0.0018,0.001 -0.0032,0.003 -0.004,0.005c-0.0008,0.002 -0.001,0.004 -0.0007,0.007c0.0004,0.002 0.0014,0.004 0.0028,0.005c0.0015,0.002 0.0034,0.003 0.0056,0.004c0.0721,0.024 0.1446,0.048 0.2175,0.072v0h0.0001v0c0.3705,0.122 0.7497,0.248 1.128,0.34c0.2244,0.055 0.4509,0.112 0.6797,0.171c0.0075,0.002 0.0154,0.001 0.0223,-0.002c0.0068,-0.003 0.0121,-0.009 0.0147,-0.016zM21.711,7.895c-0.1035,-0.038 -0.2099,-0.075 -0.319,-0.109c-0.0247,-0.008 -0.0297,-0.002 -0.0153,0.019c0.5452,0.763 0.9919,1.571 1.3206,2.44c0.0022,0.006 0.0065,0.011 0.0122,0.014c0.0057,0.003 0.0124,0.004 0.0188,0.002c0.6933,-0.15 1.3711,-0.344 2.0336,-0.583c0.0016,-0.001 0.003,-0.002 0.0041,-0.003c0.0011,-0.001 0.0018,-0.003 0.0021,-0.005c0.0002,-0.001 0.0001,-0.003 -0.0005,-0.005c-0.0003,0 -0.0007,-0.001 -0.0012,-0.002c-0.0002,0 -0.0005,-0.001 -0.0008,-0.001c-0.0003,0 -0.0006,0 -0.0009,-0.001c-0.9337,-0.767 -1.9516,-1.356 -3.0537,-1.766zM25.7043,10.839c-0.8015,0.325 -1.6369,0.586 -2.5062,0.782c-0.0066,0.002 -0.0123,0.006 -0.0158,0.011c-0.0035,0.006 -0.0047,0.012 -0.0032,0.019c0.0309,0.13 0.0632,0.262 0.0957,0.394c0.0897,0.365 0.1804,0.734 0.2442,1.096c0.0355,0.202 0.0713,0.404 0.1077,0.607c0.0552,0.305 0.0904,0.62 0.1252,0.931c0.007,0.062 0.0139,0.124 0.0209,0.185c0.0481,0.417 0.0694,0.833 0.0907,1.248v0v0.001v0v0v0c0.0055,0.108 0.0111,0.216 0.0171,0.324c0.0002,0.005 0.0024,0.009 0.0061,0.013c0.0037,0.003 0.0086,0.005 0.0138,0.005h4.3807c0.0022,0 0.0045,-0.001 0.0066,-0.002c0.0021,-0.001 0.004,-0.002 0.0055,-0.003c0.0016,-0.002 0.0027,-0.004 0.0034,-0.006c0.0007,-0.002 0.0009,-0.004 0.0007,-0.006c-0.1779,-2.129 -0.9746,-4.013 -2.3901,-5.65c-0.0105,-0.012 -0.0236,-0.016 -0.0394,-0.011c-0.0539,0.019 -0.1085,0.039 -0.1636,0.062zM8.4446,13.315c-0.4369,0.993 -0.6977,2.036 -0.7824,3.129c-0.0006,0.007 0.0028,0.011 0.0102,0.011h4.382c0.0087,0 0.0171,-0.004 0.0233,-0.009c0.0062,-0.006 0.0098,-0.014 0.01,-0.022c0.0374,-1.27 0.18,-2.482 0.4282,-3.636c0.0826,-0.384 0.1729,-0.763 0.271,-1.136c0.0009,-0.003 0.001,-0.006 0.0005,-0.01c-0.0005,-0.003 -0.0018,-0.007 -0.0037,-0.01c-0.0019,-0.003 -0.0044,-0.005 -0.0073,-0.007c-0.003,-0.002 -0.0063,-0.004 -0.0099,-0.005c-0.9269,-0.208 -1.8143,-0.49 -2.662,-0.846c-0.0144,-0.006 -0.0268,-0.003 -0.037,0.008c-0.6775,0.77 -1.2185,1.614 -1.6229,2.533zM13.5665,16.435c-0.0004,0.013 0.0066,0.02 0.0208,0.02h3.6205c0.0091,0 0.0178,-0.004 0.0242,-0.01c0.0064,-0.006 0.01,-0.015 0.01,-0.023v-4.242c0,-0.003 -0.0012,-0.006 -0.0034,-0.008c-0.0021,-0.002 -0.005,-0.003 -0.0081,-0.004c-0.9837,-0.024 -1.9688,-0.111 -2.9552,-0.259c-0.004,0 -0.0081,0.001 -0.0115,0.003c-0.0034,0.002 -0.0059,0.005 -0.007,0.008c-0.4146,1.458 -0.6447,2.963 -0.6903,4.515zM21.8877,12.619c-0.0543,-0.218 -0.1119,-0.448 -0.173,-0.691c-0.0037,-0.015 -0.0134,-0.021 -0.0291,-0.019c-0.9834,0.148 -1.9639,0.234 -2.9417,0.259c-0.0148,0.001 -0.0222,0.008 -0.0222,0.022v4.232c0,0.008 0.0036,0.017 0.01,0.023c0.0064,0.006 0.0151,0.01 0.0242,0.01h3.6288c0.001,0 0.0019,0 0.0027,-0.001c0.0007,0 0.0014,0 0.0021,0c0.0014,-0.001 0.0028,-0.002 0.0039,-0.003c0.0012,-0.001 0.002,-0.002 0.0026,-0.003c0.0006,-0.002 0.0008,-0.003 0.0008,-0.005c-0.0356,-1.28 -0.1975,-2.575 -0.5091,-3.824zM10.4143,23.546c0.7827,-0.321 1.5756,-0.577 2.3786,-0.767c0.0007,-0.001 0.0014,-0.001 0.0021,-0.001c0.0008,0 0.0017,-0.001 0.0025,-0.001c0.0005,0 0.001,0 0.0015,-0.001c0.0005,0 0.001,0 0.0015,-0.001c0.0022,-0.001 0.0042,-0.003 0.0056,-0.006c0.0015,-0.002 0.0025,-0.004 0.0029,-0.007c0.0004,-0.003 0.0003,-0.005 -0.0004,-0.008c-0.078,-0.319 -0.1554,-0.632 -0.2321,-0.939c-0.0623,-0.25 -0.1084,-0.507 -0.1541,-0.76v0v0v0c-0.0178,-0.099 -0.0355,-0.197 -0.054,-0.294c-0.0484,-0.255 -0.0877,-0.517 -0.1179,-0.783c-0.01,-0.088 -0.0206,-0.176 -0.0312,-0.264v0c-0.0328,-0.271 -0.0658,-0.544 -0.0812,-0.814c-0.0188,-0.331 -0.0368,-0.666 -0.0541,-1.004c-0.0003,-0.005 -0.0026,-0.01 -0.0064,-0.013c-0.0038,-0.004 -0.0087,-0.006 -0.0139,-0.006h-4.3701c-0.0172,0 -0.0253,0.009 -0.024,0.025c0.0428,0.542 0.1277,1.067 0.2548,1.576c0.3856,1.547 1.1239,2.931 2.2148,4.153c0.012,0.014 0.0267,0.017 0.0439,0.01c0.0004,0 0.0774,-0.032 0.2312,-0.095zM14.2624,22.44c0.0027,0.009 0.0089,0.017 0.0174,0.022c0.0086,0.006 0.0188,0.008 0.0288,0.006c0.9831,-0.16 1.9513,-0.257 2.9048,-0.293c0.0076,-0.001 0.0149,-0.004 0.0203,-0.009c0.0053,-0.005 0.0083,-0.012 0.0083,-0.02v-4.235c0,-0.009 -0.0037,-0.018 -0.0103,-0.024c-0.0066,-0.006 -0.0155,-0.01 -0.0248,-0.01h-3.6159c-0.0161,0 -0.0239,0.008 -0.0236,0.023c0.0438,1.536 0.2754,3.049 0.695,4.54zM21.7101,22.366c0.0011,0 0.0023,0 0.0034,0c0.0013,0 0.0026,-0.001 0.0038,-0.001c0.0022,-0.002 0.0037,-0.004 0.0044,-0.006c0.406,-1.451 0.631,-2.937 0.6751,-4.458c0.0006,-0.016 -0.0074,-0.024 -0.0241,-0.024h-3.6274c-0.0158,0 -0.0236,0.008 -0.0236,0.023v4.231c0,0.003 0.0005,0.005 0.0015,0.007c0.0009,0.003 0.0024,0.005 0.0042,0.006c0.0018,0.002 0.0039,0.003 0.0063,0.004c0.0008,0.001 0.0017,0.001 0.0026,0.001c0.0008,0 0.0015,0.001 0.0023,0.001c0.0004,0 0.0008,0 0.0012,0c0.0004,0 0.0009,0 0.0013,0c0.9756,0.007 1.9653,0.079 2.969,0.216zM25.8185,23.418c0.0444,0.018 0.0895,0.032 0.1355,0.042c0.0138,0.003 0.0252,-0.001 0.0342,-0.012c1.3665,-1.614 2.1387,-3.467 2.3166,-5.56c0.0001,-0.001 -0.0001,-0.002 -0.0006,-0.004c-0.0005,-0.001 -0.0012,-0.002 -0.0022,-0.003c-0.001,-0.001 -0.0022,-0.002 -0.0036,-0.003c-0.0004,0 -0.0007,0 -0.001,0c-0.0004,0 -0.0006,0 -0.001,0c-0.0008,-0.001 -0.0015,-0.001 -0.0023,-0.001h-4.3909c-0.0063,0 -0.0124,0.003 -0.017,0.007c-0.0046,0.004 -0.0072,0.01 -0.0075,0.016c-0.0129,0.405 -0.0346,0.79 -0.0652,1.155c-0.1035,1.231 -0.3076,2.413 -0.6122,3.546c-0.001,0.004 -0.0012,0.008 -0.0006,0.012c0.0006,0.004 0.002,0.007 0.0042,0.011c0.0021,0.003 0.005,0.006 0.0084,0.008c0.002,0.002 0.0042,0.003 0.0065,0.004c0.0015,0.001 0.003,0.001 0.0047,0.001c0.9013,0.19 1.766,0.45 2.594,0.781zM21.2352,23.78c0.0034,-0.008 0.0068,-0.016 0.0102,-0.023c0.004,-0.009 0.0009,-0.014 -0.0092,-0.015c-0.0202,-0.002 -0.0404,-0.004 -0.0607,-0.006c-0.0208,-0.002 -0.0415,-0.005 -0.0623,-0.007l-0.0473,-0.005h-0.0033h-0.0002v0c-0.4907,-0.053 -1.0037,-0.108 -1.4964,-0.126c-0.258,-0.01 -0.5302,-0.021 -0.8166,-0.034c-0.0185,-0.001 -0.0277,0.008 -0.0277,0.025v3.336c0,0.017 0.008,0.022 0.024,0.014c0.3906,-0.189 0.748,-0.462 1.0723,-0.821c0.6187,-0.683 1.0543,-1.48 1.4172,-2.338zM17.2161,26.937c0.0173,0.009 0.0259,0.003 0.0259,-0.015v-3.302c0,-0.019 -0.0092,-0.027 -0.0277,-0.026c-0.8447,0.045 -1.6578,0.127 -2.4396,0.246c-0.0111,0.002 -0.0145,0.008 -0.0102,0.018c0.301,0.704 0.67,1.392 1.1555,1.999c0.3561,0.446 0.7727,0.824 1.2961,1.08zM22.7246,24.014c-0.3297,0.89 -0.7819,1.741 -1.34,2.507c-0.0216,0.03 -0.0145,0.039 0.0213,0.026c1.2839,-0.442 2.4368,-1.093 3.4587,-1.953c0.0018,-0.002 0.0031,-0.004 0.004,-0.006c0.0008,-0.002 0.0009,-0.005 0.0004,-0.007c-0.0002,-0.001 -0.0006,-0.002 -0.0011,-0.003c-0.0005,-0.001 -0.0012,-0.002 -0.002,-0.003c-0.0016,-0.002 -0.0037,-0.003 -0.006,-0.004c-0.1206,-0.037 -0.243,-0.075 -0.3664,-0.114l-0.0025,-0.001h-0.0003c-0.3208,-0.102 -0.649,-0.206 -0.9722,-0.281c-0.2577,-0.06 -0.5098,-0.12 -0.7564,-0.18c-0.0077,-0.002 -0.0158,-0.001 -0.0227,0.002c-0.0069,0.004 -0.0122,0.01 -0.0148,0.017zM14.5699,26.545c0.0339,0.012 0.0405,0.003 0.0198,-0.025c-0.5332,-0.729 -0.9656,-1.52 -1.297,-2.375c-0.0008,-0.002 -0.0019,-0.003 -0.0032,-0.005c-0.0014,-0.001 -0.0031,-0.003 -0.005,-0.004c-0.0038,-0.001 -0.0081,-0.002 -0.0121,-0.001c-0.6643,0.154 -1.3232,0.353 -1.9767,0.597c-0.0018,0.001 -0.0034,0.002 -0.0047,0.003c-0.0002,0 -0.0005,0.001 -0.0007,0.001c-0.0008,0.001 -0.0013,0.003 -0.0015,0.004c-0.0003,0.002 -0.0001,0.004 0.0006,0.005c0.0008,0.002 0.002,0.004 0.0035,0.005c0.1828,0.134 0.3694,0.272 0.5599,0.413c0.3103,0.229 0.6811,0.454 1.002,0.631c0.5537,0.306 1.1254,0.556 1.7151,0.751zM1.7947,12.192c0.1274,-0.635 0.3835,-1.23 0.7682,-1.786c0.0393,-0.057 0.0766,-0.112 0.112,-0.166c0.1304,-0.196 0.1392,-0.394 0.0317,-0.613c-0.0975,-0.198 -0.3729,-0.237 -0.5821,-0.229c-0.1508,0.006 -0.3006,0.125 -0.3662,0.242c-0.0283,0.05 -0.0621,0.094 -0.0957,0.137c-0.0431,0.055 -0.0858,0.111 -0.1158,0.179c-0.0285,0.065 -0.0665,0.123 -0.1042,0.181c-0.044,0.067 -0.0878,0.135 -0.1162,0.212c-0.0291,0.079 -0.0714,0.151 -0.1135,0.222c-0.0506,0.085 -0.1007,0.17 -0.1265,0.267c-0.0418,0.158 -0.1043,0.315 -0.1875,0.471c-0.0318,0.059 -0.053,0.125 -0.067,0.19c-0.1551,0.708 -0.2637,1.374 -0.3259,1.997c-0.0051,0.054 -0.0101,0.115 -0.0009,0.167c0.0292,0.167 0.039,0.327 0.0292,0.48c-0.0076,0.124 0.0127,0.243 0.0333,0.363c0.0161,0.094 0.0322,0.188 0.035,0.286c0.0027,0.084 0.0216,0.166 0.0407,0.248c0.0122,0.052 0.0244,0.105 0.0326,0.159c0.0147,0.095 0.0348,0.195 0.0601,0.299c0.059,0.243 0.1172,0.458 0.1747,0.645c0.0941,0.305 0.2354,0.683 0.4239,1.135c0.0304,0.073 0.0669,0.143 0.1032,0.212c0.037,0.071 0.074,0.142 0.1045,0.217c0.0485,0.117 0.1061,0.228 0.1728,0.331c0.0835,0.129 0.1565,0.262 0.2299,0.395c0.0948,0.173 0.1902,0.346 0.3093,0.515c0.435,0.612 0.8854,1.204 1.3511,1.776c0.1975,0.242 0.4226,0.468 0.6429,0.69h0.0001h0.0001c0.0549,0.055 0.1095,0.11 0.1633,0.164c0.1416,0.144 0.2917,0.188 0.4503,0.131c0.1577,-0.057 0.2517,-0.102 0.2823,-0.136c0.2284,-0.252 0.2389,-0.505 0.0315,-0.759c-0.1607,-0.198 -0.336,-0.386 -0.5095,-0.571c-0.1901,-0.204 -0.378,-0.405 -0.5424,-0.614l-0.0033,-0.005c-0.3545,-0.45 -0.7126,-0.906 -1.0148,-1.392c-0.1769,-0.285 -0.3214,-0.53 -0.4337,-0.736c-0.1658,-0.304 -0.3259,-0.639 -0.4803,-1.006c-0.0434,-0.103 -0.0792,-0.212 -0.1152,-0.32v0c-0.0303,-0.092 -0.0607,-0.184 -0.0958,-0.273c-0.0559,-0.143 -0.1023,-0.292 -0.1392,-0.446c-0.0912,-0.381 -0.1563,-0.757 -0.1953,-1.127c-0.0411,-0.392 -0.0453,-0.754 -0.0126,-1.085c0.0312,-0.319 0.0849,-0.668 0.1609,-1.047zM38.8368,12.062v1.238h-4.7295v-5.662h4.6201v1.237h-2.9706v0.955h2.6172v1.197h-2.6172v1.035zM43.4319,13.3l-1.2203,-1.755l-1.2034,1.755h-1.9019l2.1459,-2.863l-2.0533,-2.799h1.8766l1.1782,1.634l1.1613,-1.634h1.801l-2.0534,2.734l2.188,2.928zM48.429,7.638c0.5331,0 0.996,0.086 1.3885,0.259c0.3931,0.167 0.6959,0.409 0.9091,0.728c0.2132,0.312 0.32,0.682 0.32,1.108c0,0.426 -0.1068,0.795 -0.32,1.108c-0.2132,0.313 -0.516,0.555 -0.9091,0.728c-0.3925,0.167 -0.8554,0.251 -1.3885,0.251h-1.0265v1.48h-1.6663v-5.662zM48.3282,10.558c0.3422,0 0.6002,-0.07 0.774,-0.21c0.1743,-0.146 0.2613,-0.351 0.2613,-0.615c0,-0.264 -0.087,-0.469 -0.2613,-0.615c-0.1738,-0.146 -0.4318,-0.218 -0.774,-0.218h-0.9257v1.658zM54.4341,11.795h-0.9091v1.505h-1.666v-5.662h2.693c0.5327,0 0.9955,0.086 1.3885,0.259c0.3926,0.167 0.6955,0.409 0.9086,0.728c0.2132,0.312 0.32,0.682 0.32,1.108c0,0.41 -0.1012,0.768 -0.3029,1.076c-0.1965,0.302 -0.4799,0.539 -0.8503,0.711l1.2711,1.78h-1.7843zM55.486,9.733c0,-0.264 -0.0869,-0.469 -0.2608,-0.615c-0.1743,-0.146 -0.4323,-0.218 -0.7745,-0.218h-0.9257v1.658h0.9257c0.3422,0 0.6002,-0.07 0.7745,-0.21c0.1739,-0.146 0.2608,-0.351 0.2608,-0.615zM62.8177,12.062v1.238h-4.7293v-5.662h4.6202v1.237h-2.9709v0.955h2.6171v1.197h-2.6171v1.035zM65.8126,13.413c-0.4767,0 -0.9396,-0.056 -1.3885,-0.17c-0.4486,-0.113 -0.8134,-0.264 -1.0941,-0.453l0.547,-1.181c0.2636,0.168 0.5697,0.302 0.9174,0.405c0.3477,0.102 0.6899,0.154 1.0265,0.154c0.64,0 0.9595,-0.154 0.9595,-0.462c0,-0.161 -0.0925,-0.28 -0.2774,-0.355c-0.1799,-0.081 -0.4717,-0.165 -0.8753,-0.251c-0.4435,-0.092 -0.8139,-0.189 -1.1112,-0.291c-0.2973,-0.108 -0.5525,-0.278 -0.7657,-0.51c-0.2132,-0.232 -0.3195,-0.545 -0.3195,-0.938c0,-0.345 0.098,-0.655 0.2945,-0.931c0.1961,-0.28 0.4879,-0.501 0.8749,-0.663c0.393,-0.162 0.8725,-0.242 1.4394,-0.242c0.387,0 0.7685,0.043 1.1444,0.129c0.376,0.081 0.707,0.202 0.9928,0.364l-0.5133,1.189c-0.5609,-0.291 -1.1051,-0.437 -1.6327,-0.437c-0.3306,0 -0.572,0.049 -0.7236,0.146c-0.1512,0.092 -0.2271,0.213 -0.2271,0.364c0,0.151 0.0898,0.264 0.2692,0.34c0.1794,0.075 0.4684,0.153 0.8669,0.234c0.4486,0.092 0.8189,0.192 1.1107,0.299c0.2973,0.103 0.5526,0.27 0.7657,0.502c0.2192,0.226 0.3283,0.537 0.3283,0.93c0,0.34 -0.098,0.647 -0.2945,0.922c-0.1961,0.275 -0.4906,0.496 -0.8836,0.664c-0.3926,0.161 -0.8693,0.242 -1.4307,0.242zM71.2618,13.413c-0.477,0 -0.9399,-0.056 -1.3889,-0.17c-0.449,-0.113 -0.8134,-0.264 -1.094,-0.453l0.547,-1.181c0.2635,0.168 0.5696,0.302 0.9174,0.405c0.3475,0.102 0.6895,0.154 1.0265,0.154c0.639,0 0.959,-0.154 0.959,-0.462c0,-0.161 -0.092,-0.28 -0.277,-0.355c-0.18,-0.081 -0.472,-0.165 -0.875,-0.251c-0.444,-0.092 -0.8141,-0.189 -1.1114,-0.291c-0.2974,-0.108 -0.5526,-0.278 -0.7658,-0.51c-0.2131,-0.232 -0.3199,-0.545 -0.3199,-0.938c0,-0.345 0.0984,-0.655 0.2945,-0.931c0.1965,-0.28 0.4883,-0.501 0.8753,-0.663c0.393,-0.162 0.8723,-0.242 1.4393,-0.242c0.387,0 0.769,0.043 1.145,0.129c0.375,0.081 0.706,0.202 0.992,0.364l-0.513,1.189c-0.561,-0.291 -1.105,-0.437 -1.633,-0.437c-0.331,0 -0.572,0.049 -0.723,0.146c-0.152,0.092 -0.227,0.213 -0.227,0.364c0,0.151 0.089,0.264 0.269,0.34c0.179,0.075 0.468,0.153 0.867,0.234c0.448,0.092 0.819,0.192 1.11,0.299c0.298,0.103 0.553,0.27 0.766,0.502c0.219,0.226 0.328,0.537 0.328,0.93c0,0.34 -0.098,0.647 -0.294,0.922c-0.197,0.275 -0.491,0.496 -0.884,0.664c-0.392,0.161 -0.869,0.242 -1.43,0.242zM34.831,21.482c0.4152,0.129 0.8444,0.194 1.2876,0.194c0.4994,0 0.9201,-0.07 1.2624,-0.21c0.3422,-0.146 0.5975,-0.34 0.7658,-0.583c0.1683,-0.248 0.2524,-0.52 0.2524,-0.817c0,-0.356 -0.0981,-0.639 -0.2945,-0.849c-0.1907,-0.211 -0.4208,-0.367 -0.6901,-0.469c-0.2693,-0.103 -0.6256,-0.205 -1.0688,-0.308c-0.3422,-0.075 -0.6143,-0.145 -0.8163,-0.21c-0.1963,-0.07 -0.3618,-0.165 -0.4965,-0.283c-0.1346,-0.124 -0.202,-0.283 -0.202,-0.477c0,-0.265 0.1179,-0.48 0.3535,-0.648c0.2412,-0.167 0.6003,-0.25 1.0772,-0.25c0.2693,0 0.5442,0.04 0.8247,0.121c0.2805,0.076 0.5442,0.189 0.7911,0.34l0.2777,-0.647c-0.2412,-0.162 -0.5302,-0.286 -0.8668,-0.372c-0.3366,-0.087 -0.6789,-0.13 -1.0267,-0.13c-0.4993,0 -0.9173,0.073 -1.2539,0.219c-0.3366,0.145 -0.5891,0.339 -0.7574,0.582c-0.1627,0.243 -0.2441,0.515 -0.2441,0.817c0,0.361 0.0954,0.65 0.2862,0.865c0.1963,0.211 0.4291,0.367 0.6984,0.47c0.2749,0.102 0.634,0.205 1.0772,0.307c0.3535,0.081 0.6256,0.154 0.8163,0.218c0.1964,0.065 0.3591,0.159 0.4881,0.284c0.1347,0.118 0.202,0.275 0.202,0.469c0,0.264 -0.1206,0.477 -0.3619,0.639c-0.2412,0.156 -0.6059,0.234 -1.094,0.234c-0.3703,0 -0.7321,-0.059 -1.0856,-0.178c-0.3478,-0.124 -0.634,-0.283 -0.8584,-0.477l-0.3113,0.631c0.2356,0.21 0.5582,0.383 0.9677,0.518zM44.6948,21.611v-5.662h-0.8415v2.435h-3.3831v-2.435h-0.8415v5.662h0.8415v-2.524h3.3831v2.524zM47.2998,15.949h-0.8417v5.662h0.8417zM53.1616,16.475c-0.4375,-0.351 -1.0376,-0.526 -1.8011,-0.526h-2.2971v5.662h0.8415v-1.715h1.4556c0.7635,0 1.3636,-0.175 1.8011,-0.526c0.4378,-0.35 0.6566,-0.833 0.6566,-1.447c0,-0.615 -0.2188,-1.098 -0.6566,-1.448zM52.5558,18.869c-0.2806,0.216 -0.6875,0.324 -1.2202,0.324h-1.4307v-2.54h1.4307c0.5327,0 0.9396,0.11 1.2202,0.331c0.2802,0.216 0.4208,0.529 0.4208,0.939c0,0.409 -0.1406,0.725 -0.4208,0.946zM59.1528,16.475c-0.4374,-0.351 -1.0381,-0.526 -1.801,-0.526h-2.2972v5.662h0.8416v-1.715h1.4556c0.7629,0 1.3636,-0.175 1.801,-0.526c0.4374,-0.35 0.6566,-0.833 0.6566,-1.447c0,-0.615 -0.2192,-1.098 -0.6566,-1.448zM58.547,18.869c-0.2806,0.216 -0.6875,0.324 -1.2202,0.324h-1.4306v-2.54h1.4306c0.5327,0 0.9396,0.11 1.2202,0.331c0.2803,0.216 0.4208,0.529 0.4208,0.939c0,0.409 -0.1405,0.725 -0.4208,0.946zM61.8869,15.949h-0.8416v5.662h0.8416zM68.7169,21.611v-5.662h-0.8416v4.222l-3.5345,-4.222h-0.6899v5.662h0.8416v-4.222l3.5345,4.222zM75.3698,18.748h-0.808v1.844c-0.393,0.243 -0.853,0.364 -1.38,0.364c-0.443,0 -0.844,-0.094 -1.204,-0.283c-0.353,-0.189 -0.631,-0.448 -0.833,-0.777c-0.202,-0.334 -0.303,-0.706 -0.303,-1.116c0,-0.415 0.101,-0.787 0.303,-1.116c0.202,-0.335 0.48,-0.593 0.833,-0.777c0.36,-0.189 0.763,-0.283 1.212,-0.283c0.668,0 1.237,0.218 1.708,0.655l0.522,-0.501c-0.269,-0.286 -0.597,-0.502 -0.984,-0.647c-0.382,-0.151 -0.808,-0.227 -1.279,-0.227c-0.601,0 -1.142,0.124 -1.625,0.372c-0.477,0.248 -0.853,0.593 -1.1272,1.036c-0.2695,0.442 -0.4041,0.938 -0.4041,1.488c0,0.55 0.1346,1.046 0.4041,1.488c0.2742,0.437 0.6502,0.782 1.1272,1.036c0.477,0.248 1.013,0.372 1.608,0.372c0.421,0 0.824,-0.062 1.211,-0.186c0.388,-0.124 0.727,-0.302 1.019,-0.534z" fill="black" xmlns="http://www.w3.org/2000/svg"/></svg>