<svg viewBox="0 0 45.9184 14.3079" x="0" y="0" fill="none" xmlns="http://www.w3.org/2000/svg"><g id="Group 147" data-node-id="1:1103" xmlns="http://www.w3.org/2000/svg"><path id="Vector_21" data-node-id="1:1104" d="M12.9794,6.0334h4.451v0.921h-1.752v5.19h-0.961v-5.19h-1.746zM17.2404,7.7204h0.821v0.855h0.015c0.029,-0.122 0.081,-0.236 0.154,-0.35c0.073,-0.114 0.161,-0.22 0.271,-0.31c0.103,-0.098 0.22,-0.171 0.352,-0.228c0.125,-0.057 0.257,-0.09 0.389,-0.09c0.103,0 0.176,0.009 0.213,0.009c0.036,0.008 0.08,0.016 0.117,0.016v0.937c-0.059,-0.016 -0.125,-0.024 -0.191,-0.033c-0.066,-0.008 -0.124,-0.016 -0.19,-0.016c-0.147,0 -0.286,0.033 -0.418,0.098c-0.132,0.065 -0.242,0.163 -0.345,0.285c-0.095,0.13 -0.176,0.285 -0.235,0.473c-0.058,0.187 -0.088,0.407 -0.088,0.652v2.102h-0.88zM23.6064,12.1444h-0.866v-0.619h-0.014c-0.11,0.228 -0.272,0.399 -0.484,0.538c-0.213,0.138 -0.433,0.203 -0.653,0.203c-0.521,0 -0.902,-0.138 -1.137,-0.431c-0.235,-0.286 -0.352,-0.726 -0.352,-1.304v-2.811h0.88v2.713c0,0.391 0.066,0.668 0.206,0.823c0.132,0.163 0.322,0.245 0.564,0.245c0.184,0 0.338,-0.033 0.462,-0.098c0.125,-0.065 0.228,-0.147 0.301,-0.253c0.081,-0.106 0.132,-0.236 0.169,-0.383c0.036,-0.147 0.051,-0.309 0.051,-0.481v-2.566h0.88v4.424zM25.1024,10.7264c0.029,0.286 0.125,0.481 0.293,0.603c0.169,0.114 0.374,0.172 0.609,0.172c0.081,0 0.176,-0.009 0.279,-0.025c0.102,-0.016 0.205,-0.041 0.293,-0.081c0.095,-0.041 0.169,-0.098 0.227,-0.18c0.059,-0.081 0.088,-0.179 0.081,-0.301c-0.007,-0.122 -0.044,-0.228 -0.125,-0.31c-0.08,-0.081 -0.176,-0.138 -0.293,-0.195c-0.117,-0.049 -0.257,-0.09 -0.411,-0.123c-0.154,-0.032 -0.308,-0.073 -0.469,-0.114c-0.161,-0.04 -0.323,-0.089 -0.477,-0.146c-0.154,-0.057 -0.286,-0.131 -0.41,-0.237c-0.118,-0.097 -0.22,-0.22 -0.286,-0.374c-0.074,-0.155 -0.11,-0.335 -0.11,-0.563c0,-0.244 0.051,-0.44 0.161,-0.603c0.103,-0.163 0.242,-0.293 0.403,-0.391c0.162,-0.098 0.345,-0.171 0.543,-0.212c0.198,-0.04 0.389,-0.057 0.565,-0.057c0.205,0 0.403,0.025 0.586,0.074c0.184,0.049 0.36,0.122 0.507,0.236c0.154,0.106 0.278,0.253 0.374,0.424c0.102,0.171 0.161,0.383 0.19,0.627h-0.917c-0.044,-0.236 -0.139,-0.391 -0.286,-0.473c-0.154,-0.081 -0.322,-0.122 -0.52,-0.122c-0.059,0 -0.14,0.008 -0.22,0.017c-0.088,0.016 -0.162,0.032 -0.242,0.065c-0.074,0.032 -0.14,0.081 -0.191,0.138c-0.051,0.057 -0.081,0.139 -0.081,0.237c0,0.122 0.037,0.211 0.11,0.285c0.074,0.073 0.169,0.13 0.294,0.187c0.117,0.049 0.256,0.09 0.41,0.122c0.154,0.033 0.316,0.074 0.477,0.114c0.161,0.041 0.315,0.09 0.469,0.147c0.155,0.057 0.294,0.131 0.411,0.236c0.118,0.098 0.22,0.22 0.294,0.367c0.073,0.147 0.11,0.334 0.11,0.546c0,0.261 -0.052,0.481 -0.162,0.668c-0.11,0.179 -0.249,0.334 -0.418,0.448c-0.169,0.114 -0.367,0.196 -0.572,0.253c-0.213,0.049 -0.418,0.081 -0.623,0.081c-0.25,0 -0.484,-0.032 -0.697,-0.097c-0.213,-0.066 -0.403,-0.163 -0.557,-0.286c-0.154,-0.13 -0.279,-0.285 -0.367,-0.48c-0.088,-0.188 -0.139,-0.416 -0.147,-0.685h0.888v0.008zM27.9994,7.7204h0.667v-1.337h0.88v1.329h0.793v0.725h-0.793v2.363c0,0.106 0.008,0.187 0.015,0.269c0.007,0.073 0.029,0.138 0.051,0.187c0.03,0.049 0.074,0.09 0.125,0.114c0.059,0.025 0.132,0.041 0.235,0.041c0.059,0 0.125,0 0.183,-0.008c0.059,-0.008 0.125,-0.017 0.184,-0.033v0.758c-0.096,0.016 -0.191,0.024 -0.286,0.033c-0.096,0.016 -0.184,0.016 -0.287,0.016c-0.234,0 -0.418,-0.025 -0.557,-0.074c-0.139,-0.048 -0.249,-0.122 -0.33,-0.211c-0.081,-0.098 -0.132,-0.212 -0.161,-0.351c-0.03,-0.138 -0.044,-0.309 -0.052,-0.489v-2.607h-0.667v-0.742zM30.9554,7.7204h0.828v0.603h0.015c0.125,-0.261 0.293,-0.44 0.513,-0.554c0.22,-0.115 0.455,-0.172 0.719,-0.172c0.316,0 0.587,0.057 0.822,0.188c0.234,0.122 0.425,0.285 0.579,0.505c0.154,0.212 0.271,0.465 0.345,0.75c0.073,0.285 0.117,0.595 0.117,0.912c0,0.302 -0.037,0.587 -0.103,0.864c-0.073,0.277 -0.176,0.53 -0.315,0.742c-0.139,0.211 -0.315,0.383 -0.535,0.513c-0.22,0.13 -0.47,0.195 -0.763,0.195c-0.125,0 -0.257,-0.016 -0.382,-0.04c-0.124,-0.025 -0.249,-0.065 -0.366,-0.123c-0.118,-0.057 -0.228,-0.13 -0.323,-0.22c-0.103,-0.089 -0.183,-0.195 -0.249,-0.309h-0.015v2.208h-0.88v-6.062zM34.0284,9.9364c0,-0.196 -0.022,-0.391 -0.074,-0.579c-0.044,-0.187 -0.117,-0.35 -0.212,-0.497c-0.096,-0.146 -0.213,-0.26 -0.345,-0.35c-0.139,-0.09 -0.301,-0.13 -0.477,-0.13c-0.367,0 -0.645,0.138 -0.836,0.423c-0.183,0.286 -0.279,0.669 -0.279,1.141c0,0.228 0.022,0.432 0.074,0.619c0.051,0.188 0.117,0.351 0.22,0.489c0.095,0.139 0.212,0.245 0.352,0.326c0.139,0.082 0.293,0.123 0.476,0.123c0.206,0 0.367,-0.049 0.507,-0.139c0.139,-0.09 0.249,-0.212 0.344,-0.35c0.088,-0.147 0.154,-0.31 0.191,-0.497c0.037,-0.196 0.059,-0.383 0.059,-0.579zM35.5754,6.0334h0.88v0.921h-0.88zM35.5754,7.7204h0.88v4.424h-0.88zM37.2404,6.0334h0.88v6.111h-0.88zM40.8044,12.2664c-0.315,0 -0.601,-0.057 -0.85,-0.179c-0.25,-0.122 -0.455,-0.277 -0.631,-0.481c-0.169,-0.203 -0.301,-0.456 -0.389,-0.741c-0.088,-0.285 -0.139,-0.603 -0.139,-0.937c0,-0.334 0.044,-0.644 0.139,-0.929c0.088,-0.285 0.22,-0.53 0.389,-0.742c0.169,-0.203 0.381,-0.366 0.631,-0.48c0.249,-0.114 0.535,-0.18 0.85,-0.18c0.316,0 0.602,0.057 0.851,0.18c0.249,0.114 0.455,0.277 0.631,0.48c0.169,0.204 0.301,0.457 0.389,0.742c0.088,0.285 0.139,0.595 0.139,0.929c0,0.342 -0.044,0.652 -0.139,0.937c-0.096,0.285 -0.22,0.53 -0.389,0.741c-0.169,0.204 -0.382,0.367 -0.631,0.481c-0.249,0.114 -0.528,0.179 -0.851,0.179zM40.8044,11.4924c0.191,0 0.367,-0.049 0.506,-0.138c0.147,-0.09 0.257,-0.212 0.352,-0.359c0.096,-0.146 0.162,-0.317 0.206,-0.497c0.044,-0.187 0.066,-0.375 0.066,-0.57c0,-0.188 -0.022,-0.375 -0.066,-0.562c-0.044,-0.188 -0.11,-0.351 -0.206,-0.497c-0.095,-0.147 -0.212,-0.261 -0.352,-0.351c-0.146,-0.089 -0.315,-0.138 -0.506,-0.138c-0.19,0 -0.366,0.049 -0.506,0.138c-0.146,0.09 -0.256,0.212 -0.352,0.351c-0.095,0.146 -0.161,0.309 -0.205,0.497c-0.044,0.187 -0.066,0.374 -0.066,0.562c0,0.195 0.022,0.383 0.066,0.57c0.044,0.188 0.11,0.351 0.205,0.497c0.096,0.147 0.213,0.269 0.352,0.359c0.147,0.098 0.316,0.138 0.506,0.138zM43.0784,7.7204h0.667v-1.337h0.88v1.329h0.793v0.725h-0.793v2.363c0,0.106 0.008,0.187 0.015,0.269c0.007,0.073 0.029,0.138 0.051,0.187c0.03,0.049 0.074,0.09 0.125,0.114c0.059,0.025 0.132,0.041 0.235,0.041c0.059,0 0.125,0 0.183,-0.008c0.059,-0.008 0.125,-0.017 0.184,-0.033v0.758c-0.096,0.016 -0.191,0.024 -0.286,0.033c-0.096,0.016 -0.184,0.016 -0.287,0.016c-0.234,0 -0.418,-0.025 -0.557,-0.074c-0.139,-0.048 -0.249,-0.122 -0.33,-0.211c-0.081,-0.098 -0.132,-0.212 -0.161,-0.351c-0.03,-0.138 -0.044,-0.309 -0.052,-0.489v-2.607h-0.667v-0.742z" fill="black"/><path id="Vector_22" data-node-id="1:1105" d="M11.9564,6.0354h-4.027l-1.239,-4.253l-1.247,4.253l-4.026,-0.008l3.256,2.632l-1.247,4.254l3.256,-2.632l3.257,2.632l-1.24,-4.254z" fill="#00B67A"/><path id="Vector_23" data-node-id="1:1106" d="M8.9744,9.6184l-0.278,-0.961l-2.01,1.621z" fill="#005128"/></g></svg>