<svg viewBox="0 0 299.5 36.0526" x="0" y="0" fill="none" xmlns="http://www.w3.org/2000/svg"><defs><linearGradient id="paint2_linear_1_1056" x1="98.683" y1="27.775900000000092" x2="108.881" y2="19.2659000000001" gradientUnits="userSpaceOnUse" xmlns="http://www.w3.org/2000/svg"><stop stop-color="#A80034"/><stop offset="1" stop-color="#DB0031"/></linearGradient></defs><g id="delivery" data-node-id="1:1187" xmlns="http://www.w3.org/2000/svg"><g id="Group 206" data-node-id="I1:1187;1:1805"><path id="Vector_33" data-node-id="I1:1187;1:1806" d="M74.4997,6.5059v16.42h-73.9997v-16.42z" fill="#FFCC00"/><path id="Vector_34" data-node-id="I1:1187;1:1807" d="M13.5134,9.4559l-2.3642,3.23h12.8853c0.6513,0 0.6427,0.25 0.3243,0.68c-0.3233,0.44 -0.8643,1.2 -1.1936,1.65c-0.1671,0.23 -0.4693,0.64 0.532,0.64h5.2693c0,0 0.8493,-1.16 1.5611,-2.13c0.9686,-1.32 0.0841,-4.07 -3.3785,-4.07z" fill="#D2002E"/><path id="Vector_35" data-node-id="I1:1187;1:1808" d="M10.1927,19.9759l4.7488,-6.49h5.8928c0.6513,0 0.6428,0.25 0.3245,0.68c-0.3233,0.44 -0.8733,1.2 -1.2026,1.65c-0.1672,0.23 -0.4692,0.64 0.5319,0.64h7.8946c-0.6565,0.9 -2.7862,3.52 -6.6103,3.52zM37.3889,16.4559l-2.5752,3.52h-6.7929c0,0 2.5737,-3.52 2.5759,-3.52zM47.7953,15.6559h-16.615l4.5436,-6.2h6.7909l-2.6043,3.56h3.0313l2.6053,-3.56h6.7902zM47.2121,16.4559l-2.5763,3.52h-6.7905c0,0 2.5738,-3.52 2.576,-3.52zM0.5,17.8459h10.0073l-0.5466,0.75h-9.4607zM0.5,16.4559h11.024l-0.5477,0.75h-10.4763zM0.5,19.2359h8.9911l-0.544,0.74h-8.4471zM74.5,18.5959h-9.9688l0.5472,-0.75h9.4216zM74.5,19.9759h-10.9822l0.544,-0.74h10.4382zM66.0938,16.4559h8.4062v0.75h-8.9529zM61.742,9.4559l-4.5428,6.2h-7.1959c0,0 4.544,-6.2 4.5463,-6.2zM49.4211,16.4559c0,0 -0.4964,0.68 -0.7374,1.01c-0.853,1.16 -0.0989,2.51 2.6846,2.51h10.906l2.5761,-3.52z" fill="#D2002E"/><path id="Vector_36" data-node-id="I1:1187;1:1809" d="M0.5,25.5959h74v0.37h-74zM0.5,27.3359h74v0.37h-74zM0.5,29.0659h74v0.37h-74z" fill="#FFCC00"/><path id="Vector_37" data-node-id="I1:1187;1:1810" d="M25.3486,29.4359h2.2271l0.3554,-0.48h-1.6573l0.9294,-1.27h1.5093l0.3555,-0.48h-1.5093l0.8242,-1.13h1.6574l0.3556,-0.48h-2.227zM28.0818,29.4359h0.6834l2.3295,-1.63l-0.0228,1.63h0.7176l0.0054,-2.01l2.6839,-1.83h-0.6493l-2.1364,1.48l0.0233,-1.48h-0.6834l-0.0208,1.84zM35.3409,26.0759h0.4842c0.3532,0 0.7478,0.18 0.3922,0.66c-0.3718,0.51 -0.9412,0.68 -1.2945,0.68h-0.5638zM32.3067,29.4359h0.5695l1.1272,-1.53h0.5581c0.7177,0 1.629,-0.31 2.2553,-1.16c0.6425,-0.88 0.1667,-1.15 -0.6477,-1.15h-1.0422zM35.5865,29.4359h0.5696l1.2525,-1.7h0.3416c0.3018,0 0.49,0 0.3919,0.37l-0.3684,1.33h0.6494l0.3715,-1.53c0.0484,-0.23 0.0237,-0.32 -0.1046,-0.38l0.0081,-0.01c0.5181,-0.08 1.1192,-0.41 1.4627,-0.88c0.6747,-0.92 0.0061,-1.04 -0.78,-1.04h-0.9739zM38.6208,26.0759h0.5467c0.5242,0 0.6358,0.22 0.3814,0.57c-0.2707,0.37 -0.7594,0.6 -1.3006,0.6h-0.4841zM39.0128,29.4359h2.2271l0.3553,-0.48h-1.6572l0.9292,-1.27h1.5094l0.3553,-0.48h-1.5091l0.8241,-1.13h1.6575l0.3557,-0.48h-2.227zM46.8034,25.6659c-0.2047,-0.09 -0.4859,-0.14 -0.7478,-0.14c-0.7177,0 -1.5425,0.37 -2.0436,1.05c-0.8767,1.19 1.0057,0.96 0.3753,1.82c-0.3313,0.45 -0.9163,0.62 -1.2408,0.62c-0.2907,0 -0.5515,-0.11 -0.6885,-0.18l-0.4326,0.51c0.2014,0.08 0.4183,0.16 0.6974,0.16c0.7973,0 1.6907,-0.33 2.2927,-1.15c0.9292,-1.26 -0.9048,-1.09 -0.3632,-1.83c0.2951,-0.4 0.7518,-0.51 1.0707,-0.51c0.2963,0 0.4191,0.05 0.6287,0.16zM49.6512,25.6659c-0.2046,-0.09 -0.4857,-0.14 -0.7478,-0.14c-0.7176,0 -1.5424,0.37 -2.0435,1.05c-0.8768,1.19 1.0057,0.96 0.3752,1.82c-0.3311,0.45 -0.9163,0.62 -1.2408,0.62c-0.2906,0 -0.5516,-0.11 -0.6884,-0.18l-0.4327,0.51c0.2014,0.08 0.4184,0.16 0.6973,0.16c0.7974,0 1.6907,-0.33 2.2927,-1.15c0.9294,-1.26 -0.9045,-1.09 -0.3631,-1.83c0.295,-0.4 0.7519,-0.51 1.0707,-0.51c0.2963,0 0.4194,0.05 0.6288,0.16z" fill="#D2002E"/></g><g id="DPD_logo_(2015) logo" data-node-id="I1:1187;1:1811"><path id="path7" data-node-id="I1:1187;1:1812" fill-rule="evenodd" clip-rule="evenodd" d="M137.953,26.0959c-1.243,0.34 -2.863,0.48 -4.251,0.48c-3.614,0 -5.985,-1.86 -5.985,-5.27c0,-3.25 2.226,-5.34 5.465,-5.34c0.723,0 1.504,0.09 1.966,0.32v-4.71h2.805zM135.148,18.6859c-0.433,-0.2 -1.041,-0.31 -1.735,-0.31c-1.706,0 -2.833,1.03 -2.833,2.84c0,1.92 1.214,3.01 3.209,3.01c0.347,0 0.897,0 1.359,-0.11zM161,26.0959c-1.243,0.34 -2.863,0.48 -4.28,0.48c-3.585,0 -5.986,-1.86 -5.986,-5.27c0,-3.25 2.227,-5.34 5.466,-5.34c0.752,0 1.503,0.09 1.966,0.32v-4.71h2.834zM158.166,18.6859c-0.434,-0.2 -1.012,-0.31 -1.706,-0.31c-1.735,0 -2.863,1.03 -2.863,2.84c0,1.92 1.244,3.01 3.239,3.01c0.347,0 0.867,0 1.33,-0.11zM142.377,18.6859c0.463,-0.2 1.128,-0.25 1.678,-0.25c1.735,0 2.92,0.97 2.92,2.72c0,2.07 -1.33,3.01 -3.094,3.04v2.38h0.145c3.643,0 5.812,-1.98 5.812,-5.5c0,-3.22 -2.313,-5.11 -5.725,-5.11c-1.736,0 -3.442,0.4 -4.569,0.86v13.63h2.833z" fill="#3F3F42"/><path id="Vector_38" data-node-id="I1:1187;1:1813" fill-rule="evenodd" clip-rule="evenodd" d="M106.504,4.0059c-0.157,0 -0.314,0.03 -0.437,0.09l-10.964,5.99l12.276,7.16c0.113,0.06 0.201,0.21 0.201,0.34v10.44c0,0.13 -0.096,0.28 -0.21,0.34l-0.665,0.36c-0.052,0.03 -0.122,0.05 -0.201,0.05h-0.017c-0.079,0 -0.157,-0.01 -0.21,-0.05l-0.664,-0.36c-0.114,-0.06 -0.202,-0.21 -0.202,-0.34v-9.31c0,-0.07 -0.052,-0.15 -0.113,-0.18l-10.798,-6.3v12.34c0,0.28 0.192,0.61 0.437,0.75l11.139,6.57c0.122,0.07 0.271,0.11 0.428,0.11c0.158,0 0.315,-0.04 0.429,-0.11l11.139,-6.57c0.236,-0.14 0.428,-0.48 0.428,-0.75v-12.34l-7.327,4.27c-0.113,0.07 -0.288,0.06 -0.402,0l-0.647,-0.39c-0.052,-0.03 -0.105,-0.09 -0.14,-0.15c-0.044,-0.08 -0.061,-0.15 -0.07,-0.22l-0.017,-0.76c0,-0.13 0.078,-0.28 0.192,-0.35l7.808,-4.55l-10.955,-5.99c-0.123,-0.07 -0.28,-0.09 -0.438,-0.09z" fill="url(#paint2_linear_1_1056)"/></g><g id="g834" data-node-id="I1:1187;1:1814"><path id="path6" data-node-id="I1:1187;1:1815" fill-rule="evenodd" clip-rule="evenodd" d="M243.896,27.7659l-2.827,-3.15l-2.801,3.15h-5.892l5.759,-6.43l-5.759,-6.43h6.077l2.854,3.12l2.748,-3.12h5.865l-5.733,6.4l5.813,6.46zM221.053,27.7659v-20.26h11.323v4.52h-6.528v2.88h6.528v4.34h-6.528v3.99h6.528v4.53z" fill="#FF7A08"/><path id="path8" data-node-id="I1:1187;1:1816" fill-rule="evenodd" clip-rule="evenodd" d="M216.279,7.5059v8.29h-0.055c-1.057,-1.21 -2.377,-1.63 -3.909,-1.63c-3.166,0 -5.519,2.17 -6.329,5.01c-0.932,-3.13 -3.369,-5.06 -7.016,-5.06c-2.962,0 -5.269,1.34 -6.474,3.51v-2.72h-6.077v-2.88h6.632v-4.52h-12.051v20.26h5.419v-8.52h5.431c-0.164,0.63 -0.278,1.29 -0.278,2.01c0,4.22 3.249,7.19 7.398,7.19c3.489,0 5.787,-1.63 7.004,-4.59h-4.644c-0.627,0.89 -1.105,1.15 -2.361,1.15c-1.455,0 -2.711,-1.26 -2.711,-2.75h9.481c0.412,3.35 3.017,6.25 6.628,6.25c1.559,0 2.986,-0.76 3.857,-2.05h0.055v1.31h4.774v-20.26zM196.41,19.3059c0.3,-1.28 1.305,-2.12 2.559,-2.12c1.382,0 2.335,0.81 2.586,2.12zM213.379,24.6859c-1.76,0 -2.854,-1.63 -2.854,-3.33c0,-1.82 0.951,-3.57 2.854,-3.57c1.974,0 2.759,1.75 2.759,3.57c0,1.72 -0.833,3.33 -2.759,3.33z" fill="#462895"/></g><g id="Group 207" data-node-id="I1:1187;1:1817"><path id="Vector_39" data-node-id="I1:1187;1:1818" d="M284.5,35.1359c0.294,-0.15 7.949,-3.5 10.378,-5.51c2.503,-2.09 3.828,-5.07 3.828,-8.64v-16.75l-0.221,-0.08c-6.109,-3.35 -13.691,-3.12 -14.059,-3.12c-0.294,0 -7.875,-0.23 -13.984,3.12l-0.148,0.08v16.82c0,3.58 1.325,6.56 3.828,8.64c2.429,2.01 10.084,5.36 10.378,5.44z" fill="#341B14"/><path id="Vector_40" data-node-id="I1:1187;1:1819" d="M284.5,35.5059c0,0 -8.096,-3.58 -10.599,-5.59c-2.65,-2.23 -3.901,-5.28 -3.901,-8.78v-17.42c6.404,-3.5 14.5,-3.21 14.5,-3.21c0,0 8.096,-0.29 14.5,3.21v17.34c0,3.5 -1.251,6.56 -3.901,8.79c-2.503,2.08 -10.599,5.66 -10.599,5.66zM271.178,21.1359c0,3.27 1.177,5.96 3.459,7.82c2.061,1.71 8.17,4.46 9.863,5.21c1.693,-0.75 7.876,-3.58 9.863,-5.21c2.282,-1.86 3.459,-4.62 3.459,-7.82v-17.13c-8.538,-0.81 -18.695,-0.37 -26.644,7.08z" fill="#FFB406"/><path id="Vector_41" data-node-id="I1:1187;1:1820" d="M292.67,18.6759c1.104,0.67 1.546,1.12 1.619,1.94c0,0.89 -0.589,1.41 -1.545,1.41c-0.81,0 -1.767,-0.44 -2.429,-1.04v2.38c0.809,0.45 1.766,0.82 2.797,0.82c2.502,0 3.68,-1.79 3.68,-3.42c0.073,-1.49 -0.368,-2.68 -2.503,-3.95c-0.957,-0.6 -1.693,-0.97 -1.693,-1.86c0,-0.89 0.81,-1.27 1.473,-1.27c0.883,0 1.766,0.52 2.281,1.05v-2.24c-0.441,-0.37 -1.398,-0.89 -2.797,-0.82c-1.693,0.08 -3.459,1.27 -3.459,3.35c0.073,1.42 0.515,2.46 2.576,3.65zM283.985,24.0359c0.221,0.08 0.589,0.15 1.177,0.15c2.871,0 4.49,-2.6 4.49,-6.33c0,-3.79 -1.693,-6.1 -4.71,-6.1c-1.399,0 -2.503,0.29 -3.46,0.89v16.83h2.503zM283.985,13.9159c0.221,-0.08 0.589,-0.23 0.883,-0.23c1.472,0 2.061,1.19 2.061,4.1c0,2.83 -0.736,4.17 -2.208,4.17c-0.368,0 -0.663,-0.08 -0.81,-0.15v-7.89zM276.256,24.1859c1.546,0 2.871,-0.37 3.828,-1.04v-11.24h-2.576v9.75c-0.295,0.22 -0.663,0.3 -1.178,0.3c-1.178,0 -1.325,-1.12 -1.325,-1.79v-8.26h-2.576v8.11c0,2.76 1.325,4.17 3.827,4.17z" fill="#FFB406"/></g></g></svg>