<svg viewBox="0 0 296.4996 29" x="0" y="0" fill="none" xmlns="http://www.w3.org/2000/svg"><defs><clipPath id="clip1_1_1056" xmlns="http://www.w3.org/2000/svg"><rect width="28" height="28" fill="white" transform="translate(128.7756, 0.5)"/></clipPath></defs><g id="header" data-node-id="I1:1057;1:2185" xmlns="http://www.w3.org/2000/svg"><g id="Frame 48096010" data-node-id="I1:1057;1:2186"><g id="menu" data-node-id="I1:1057;1:2187"><path id="Vector" data-node-id="I1:1057;1:2187;1:2212" d="M277.4996,14.5h18" stroke="white" stroke-width="2" stroke-linecap="round" stroke-linejoin="round"/><path id="Vector_2" data-node-id="I1:1057;1:2187;1:2213" d="M277.4996,8.5h18" stroke="white" stroke-width="2" stroke-linecap="round" stroke-linejoin="round"/><path id="Vector_3" data-node-id="I1:1057;1:2187;1:2214" d="M277.4996,20.5h18" stroke="white" stroke-width="2" stroke-linecap="round" stroke-linejoin="round"/></g></g><g id="logo" data-node-id="I1:1057;1:2188"><g id="Group 1261152701" data-node-id="I1:1057;1:2188;1:1765"><g id="TECHN" data-node-id="I1:1057;1:2188;1:1766"><path id="Vector_4" data-node-id="I1:1057;1:2188;1:1767" d="M124.0146,27.7982h-5.357l-12.131,-18.3297v18.3297h-5.357v-26.7484h5.357l12.131,18.368v-18.368h5.357z" fill="white"/><path id="Vector_5" data-node-id="I1:1057;1:2188;1:1768" d="M95.8966,1.084v26.7101h-5.357v-11.3652h-11.442v11.3652h-5.357v-26.7101h5.357v10.9825h11.442v-10.9825z" fill="white"/><path id="Vector_6" data-node-id="I1:1057;1:2188;1:1769" d="M43.0666,14.4034c0,-2.6277 0.587,-4.9747 1.76,-7.0411c1.199,-2.0919 2.819,-3.7118 4.86,-4.8598c2.067,-1.1736 4.375,-1.7603 6.926,-1.7603c2.985,0 5.6,0.7653 7.845,2.296c2.245,1.5307 3.814,3.6481 4.707,6.3523h-6.161c-0.612,-1.2756 -1.48,-2.2323 -2.602,-2.87c-1.097,-0.6378 -2.373,-0.9567 -3.827,-0.9567c-1.556,0 -2.946,0.3699 -4.171,1.1097c-1.199,0.7143 -2.143,1.7348 -2.832,3.0614c-0.663,1.3265 -0.995,2.8827 -0.995,4.6685c0,1.7603 0.332,3.3164 0.995,4.6685c0.689,1.3266 1.633,2.3598 2.832,3.0996c1.225,0.7143 2.615,1.0715 4.171,1.0715c1.454,0 2.73,-0.3189 3.827,-0.9567c1.122,-0.6633 1.99,-1.6327 2.602,-2.9082h6.161c-0.893,2.7296 -2.462,4.8598 -4.707,6.3905c-2.219,1.5051 -4.834,2.2577 -7.845,2.2577c-2.551,0 -4.859,-0.574 -6.926,-1.722c-2.041,-1.1735 -3.661,-2.7934 -4.86,-4.8598c-1.173,-2.0664 -1.76,-4.4135 -1.76,-7.0411z" fill="white"/><path id="Vector_7" data-node-id="I1:1057;1:2188;1:1770" d="M29.3584,5.4122v6.6967h8.9922v4.2476h-8.9922v7.0793h10.1402v4.3624h-15.4975v-26.7484h15.4975v4.3624z" fill="white"/><path id="Vector_8" data-node-id="I1:1057;1:2188;1:1771" d="M20.0925,1.084v4.3241h-7.1176v22.386h-5.3573v-22.386h-7.1176v-4.3241z" fill="white"/></g><g id="Logo" data-node-id="I1:1057;1:2188;1:1772" clip-path="url(#clip1_1_1056)"><path id="Vector_9" data-node-id="I1:1057;1:2188;1:1773" fill-rule="evenodd" clip-rule="evenodd" d="M146.6646,8.6797c-1.151,-0.7692 -2.504,-1.1797 -3.889,-1.1797v-7c2.769,0 5.476,0.8211 7.778,2.3594c2.302,1.5384 4.097,3.7249 5.157,6.283c1.059,2.5582 1.336,5.3731 0.796,8.0889c-0.54,2.7157 -1.873,5.2103 -3.831,7.1682c-1.958,1.9579 -4.453,3.2913 -7.169,3.8315c-2.715,0.5402 -5.53,0.2629 -8.088,-0.7967c-2.559,-1.0596 -4.745,-2.854 -6.283,-5.1563c-1.539,-2.3023 -2.36,-5.0091 -2.36,-7.778h7c0,1.3845 0.411,2.7378 1.18,3.889c0.769,1.1511 1.862,2.0483 3.141,2.5782c1.279,0.5298 2.687,0.6684 4.045,0.3983c1.358,-0.2701 2.605,-0.9368 3.584,-1.9157c0.979,-0.979 1.646,-2.2263 1.916,-3.5842c0.27,-1.3578 0.131,-2.7653 -0.399,-4.0444c-0.529,-1.2791 -1.427,-2.3723 -2.578,-3.1415z" fill="#B15FFF"/><path id="Vector_10" data-node-id="I1:1057;1:2188;1:1774" fill-rule="evenodd" clip-rule="evenodd" d="M135.7756,0.5c0,0.9193 -0.181,1.8295 -0.533,2.6788c-0.351,0.8493 -0.867,1.6209 -1.517,2.271c-0.65,0.65 -1.422,1.1656 -2.271,1.5174c-0.849,0.3517 -1.76,0.5328 -2.679,0.5328v7c1.839,0 3.659,-0.3621 5.358,-1.0657c1.698,-0.7035 3.242,-1.7348 4.542,-3.0348c1.3,-1.3 2.331,-2.8434 3.034,-4.5419c0.704,-1.6986 1.066,-3.5191 1.066,-5.3576z" fill="#B15FFF"/></g><g id="PARK" data-node-id="I1:1057;1:2188;1:1775"><path id="Vector_11" data-node-id="I1:1057;1:2188;1:1776" d="M251.7806,27.8039l-9.72,-11.901v11.901h-5.357v-26.7101h5.357v11.9774l9.72,-11.9774h6.467l-11.021,13.2402l11.327,13.4699z" fill="white"/><path id="Vector_12" data-node-id="I1:1057;1:2188;1:1777" d="M225.9646,27.8039l-5.893,-10.4086h-2.526v10.4086h-5.357v-26.7101h10.025c2.067,0 3.827,0.3699 5.281,1.1097c1.454,0.7143 2.539,1.6965 3.253,2.9465c0.74,1.2245 1.11,2.6021 1.11,4.1328c0,1.7603 -0.511,3.3547 -1.531,4.7833c-1.02,1.4032 -2.538,2.3726 -4.554,2.9083l6.391,10.8295zM217.5456,13.3773h4.477c1.454,0 2.538,-0.3444 3.253,-1.0332c0.714,-0.7143 1.071,-1.6964 1.071,-2.9465c0,-1.2245 -0.357,-2.1684 -1.071,-2.8317c-0.715,-0.6888 -1.799,-1.0332 -3.253,-1.0332h-4.477z" fill="white"/><path id="Vector_13" data-node-id="I1:1057;1:2188;1:1778" d="M201.1746,22.7117h-10.638l-1.761,5.0894h-5.625l9.605,-26.7484h6.238l9.605,26.7484h-5.664zM199.7206,18.4258l-3.865,-11.1739l-3.865,11.1739z" fill="white"/><path id="Vector_14" data-node-id="I1:1057;1:2188;1:1779" d="M180.9926,9.3593c0,1.4287 -0.344,2.768 -1.033,4.018c-0.663,1.2501 -1.722,2.2578 -3.176,3.0231c-1.429,0.7654 -3.24,1.148 -5.434,1.148h-4.477v10.2555h-5.357v-26.7101h9.834c2.066,0 3.827,0.3571 5.281,1.0714c1.454,0.7143 2.538,1.6965 3.253,2.9465c0.739,1.2501 1.109,2.666 1.109,4.2476zM171.1196,13.2243c1.48,0 2.577,-0.3317 3.291,-0.9949c0.715,-0.6888 1.072,-1.6455 1.072,-2.8701c0,-2.6021 -1.454,-3.9032 -4.363,-3.9032h-4.247v7.7682z" fill="white"/></g></g></g></g></svg>