<svg viewBox="0 0 76.9979032917905 14.879530360457693" x="0" y="0" fill="none" xmlns="http://www.w3.org/2000/svg"><g id="afterpay-logo" data-node-id="1:1149" xmlns="http://www.w3.org/2000/svg"><path id="Vector_24" data-node-id="1:1150" d="M6.7538,7.28982c0,-1.24 -0.9615,-2.12 -2.1335,-2.12c-1.1811,0 -2.1334,0.89 -2.1334,2.12c0,1.22 0.9614,2.12 2.1334,2.12c1.172,0.01 2.1335,-0.86 2.1335,-2.12zM6.7721,11.00982v-0.97c-0.586,0.67 -1.4467,1.09 -2.4814,1.09c-2.1517,0 -3.7907,-1.63 -3.7907,-3.84c0,-2.18 1.6939,-3.84 3.8365,-3.84c1.0072,0 1.8587,0.41 2.4356,1.06v-0.93h1.9319v7.43z" fill="black"/><path id="Vector_25" data-node-id="1:1151" d="M18.0968,9.35982c-0.6776,0 -0.8607,-0.24 -0.8607,-0.86v-3.3h1.2452v-1.62h-1.2452v-1.81h-1.9778v1.81h-2.5546v-0.44c0,-0.63 0.2472,-0.86 0.9431,-0.86h0.4304v-1.46h-0.9523c-1.639,0 -2.4081,0.51 -2.4081,2.06v0.7h-1.0988v1.62h1.0988v5.81h1.9778v-5.81h2.5546v3.64c0,1.51 0.6134,2.17 2.2158,2.17h1.0255v-1.65z" fill="black"/><path id="Vector_26" data-node-id="1:1152" d="M25.1992,6.62982c-0.1373,-0.97 -0.9705,-1.54 -1.9503,-1.54c-0.9705,0 -1.7763,0.56 -1.9777,1.54zM21.2529,7.77982c0.1465,1.11 0.9705,1.72 2.0327,1.72c0.8332,0 1.4741,-0.37 1.8587,-0.96h2.0327c-0.4761,1.57 -1.9686,2.59 -3.9281,2.59c-2.3715,0 -4.0379,-1.58 -4.0379,-3.82c0,-2.24 1.758,-3.86 4.0837,-3.86c2.344,0 4.0379,1.63 4.0379,3.86c0,0.16 -0.0183,0.32 -0.0457,0.47z" fill="black"/><path id="Vector_27" data-node-id="1:1153" d="M39.9328,7.28982c0,-1.2 -0.9614,-2.12 -2.1334,-2.12c-1.1812,0 -2.1334,0.89 -2.1334,2.12c0,1.22 0.9614,2.12 2.1334,2.12c1.172,0.01 2.1334,-0.91 2.1334,-2.12zM33.7065,3.57982h1.932v0.97c0.586,-0.68 1.4467,-1.1 2.4814,-1.1c2.1242,0 3.7907,1.65 3.7907,3.83c0,2.19 -1.6939,3.85 -3.8365,3.85c-0.9889,0 -1.8038,-0.37 -2.3715,-0.99v3.93h-1.9961z" fill="black"/><path id="Vector_28" data-node-id="1:1154" d="M48.8748,7.28982c0,-1.24 -0.9614,-2.12 -2.1334,-2.12c-1.1812,0 -2.1335,0.89 -2.1335,2.12c0,1.22 0.9615,2.12 2.1335,2.12c1.172,0.01 2.1334,-0.86 2.1334,-2.12zM48.8931,11.00982v-0.97c-0.586,0.67 -1.4467,1.09 -2.4814,1.09c-2.1517,0 -3.7907,-1.63 -3.7907,-3.84c0,-2.18 1.6939,-3.84 3.8365,-3.84c1.0072,0 1.8587,0.41 2.4356,1.06v-0.93h1.932v7.43z" fill="black"/><path id="Vector_29" data-node-id="1:1155" d="M30.2101,4.30982c0,0 0.4945,-0.86 1.6939,-0.86c0.5128,0 0.8516,0.17 0.8516,0.17v1.9c0,0 -0.7234,-0.42 -1.3918,-0.34c-0.6684,0.09 -1.0896,0.66 -1.0896,1.44v4.4h-1.9961v-7.44h1.932z" fill="black"/><path id="Vector_30" data-node-id="1:1156" d="M59.8545,3.57982l-4.8803,10.47h-2.0602l1.9137,-4.04l-3.2413,-6.42h2.3348l1.8954,4.29l1.9411,-4.29h2.0968z" fill="black"/><path id="Vector_31" data-node-id="1:1157" d="M75.4349,3.40982l-4.844,-2.64c-1.419,-0.77 -3.196,0.2 -3.196,1.75v0.27c0,0.24 0.138,0.47 0.367,0.59l0.915,0.5c0.266,0.14 0.605,-0.04 0.605,-0.33v-0.67c0,-0.35 0.384,-0.55 0.695,-0.38l4.194,2.28c0.311,0.17 0.311,0.59 0,0.76l-4.194,2.28c-0.311,0.17 -0.695,-0.04 -0.695,-0.38v-0.35c0,-1.55 -1.777,-2.52 -3.196,-1.75l-4.835,2.64c-1.4188,0.77 -1.4188,2.72 0,3.49l4.835,2.64c1.419,0.77 3.196,-0.2 3.196,-1.75v-0.27c0,-0.24 -0.138,-0.46 -0.367,-0.59l-0.915,-0.5c-0.266,-0.14 -0.605,0.04 -0.605,0.33v0.67c0,0.34 -0.384,0.55 -0.696,0.38l-4.193,-2.28c-0.311,-0.18 -0.311,-0.6 0,-0.77l4.193,-2.27c0.312,-0.17 0.696,0.04 0.696,0.37v0.36c0,1.55 1.777,2.52 3.196,1.75l4.834,-2.64c1.429,-0.77 1.429,-2.71 0.01,-3.49z" fill="black"/></g></svg>