<svg viewBox="0 0 107.00013922380543 17.999813396861185" x="0" y="0" fill="none" xmlns="http://www.w3.org/2000/svg"><g id="Frame 58" data-node-id="1:1065" xmlns="http://www.w3.org/2000/svg"><g id="star" data-node-id="1:1066"><path id="Vector_15" data-node-id="I1:1066;565:59995" d="M9.50012,14.73671l4.365,2.609c0.799,0.478 1.777,-0.229 1.567,-1.123l-1.157,-4.906l3.86,-3.305c0.705,-0.603 0.326,-1.746 -0.599,-1.819l-5.081,-0.426l-1.987,-4.636c-0.358,-0.841 -1.578,-0.841 -1.936,0l-1.987,4.626l-5.081,0.426c-0.925,0.073 -1.304,1.216 -0.599,1.819l3.86,3.305l-1.157,4.906c-0.21,0.894 0.768,1.601 1.567,1.122z" fill="#FEC400"/></g><g id="star_2" data-node-id="1:1067"><path id="Vector_16" data-node-id="I1:1067;565:59995" d="M31.50012,14.73671l4.365,2.609c0.799,0.478 1.777,-0.229 1.567,-1.123l-1.157,-4.906l3.86,-3.305c0.705,-0.603 0.326,-1.746 -0.599,-1.819l-5.081,-0.426l-1.987,-4.636c-0.358,-0.841 -1.578,-0.841 -1.936,0l-1.987,4.626l-5.081,0.426c-0.925,0.073 -1.304,1.216 -0.599,1.819l3.86,3.305l-1.157,4.906c-0.21,0.894 0.768,1.601 1.567,1.122z" fill="#FEC400"/></g><g id="star_3" data-node-id="1:1068"><path id="Vector_17" data-node-id="I1:1068;565:59995" d="M53.50012,14.73671l4.365,2.609c0.799,0.478 1.777,-0.229 1.567,-1.123l-1.157,-4.906l3.86,-3.305c0.705,-0.603 0.326,-1.746 -0.599,-1.819l-5.081,-0.426l-1.987,-4.636c-0.358,-0.841 -1.578,-0.841 -1.936,0l-1.987,4.626l-5.081,0.426c-0.925,0.073 -1.304,1.216 -0.599,1.819l3.86,3.305l-1.157,4.906c-0.21,0.894 0.768,1.601 1.567,1.122z" fill="#FEC400"/></g><g id="star_4" data-node-id="1:1069"><path id="Vector_18" data-node-id="I1:1069;565:59995" d="M75.50012,14.73671l4.365,2.609c0.799,0.478 1.777,-0.229 1.567,-1.123l-1.157,-4.906l3.86,-3.305c0.705,-0.603 0.326,-1.746 -0.599,-1.819l-5.081,-0.426l-1.987,-4.636c-0.358,-0.841 -1.578,-0.841 -1.936,0l-1.987,4.626l-5.081,0.426c-0.925,0.073 -1.304,1.216 -0.599,1.819l3.86,3.305l-1.157,4.906c-0.21,0.894 0.768,1.601 1.567,1.122z" fill="#FEC400"/></g><g id="star_5" data-node-id="1:1070"><path id="Vector_19" data-node-id="I1:1070;565:59995" d="M97.50012,14.73671l4.365,2.609c0.799,0.478 1.777,-0.229 1.567,-1.123l-1.157,-4.906l3.86,-3.305c0.705,-0.603 0.326,-1.746 -0.599,-1.819l-5.081,-0.426l-1.987,-4.636c-0.358,-0.841 -1.578,-0.841 -1.936,0l-1.987,4.626l-5.081,0.426c-0.925,0.073 -1.304,1.216 -0.599,1.819l3.86,3.305l-1.157,4.906c-0.21,0.894 0.768,1.601 1.567,1.122z" fill="#FEC400"/></g></g></svg>