<svg viewBox="0 0 369.2073 19.2619" x="0" y="0" fill="none" xmlns="http://www.w3.org/2000/svg"><g id="Frame 48095906" data-node-id="1:2281" xmlns="http://www.w3.org/2000/svg"><g id="afterpay-logo" data-node-id="1:2282"><path id="Vector" data-node-id="1:2283" d="M8.729,9.4364c0,-1.6384 -1.2651,-2.7935 -2.8073,-2.7935c-1.5542,0 -2.8072,1.1787 -2.8072,2.7935c0,1.603 1.265,2.7934 2.8072,2.7934c1.5422,0.0118 2.8073,-1.1433 2.8073,-2.7934zM8.7531,14.3279v-1.273c-0.7711,0.884 -1.9037,1.4262 -3.2651,1.4262c-2.8314,0 -4.988,-2.1452 -4.988,-5.0447c0,-2.876 2.2289,-5.0565 5.0482,-5.0565c1.3253,0 2.4458,0.5422 3.2049,1.4026v-1.2258h2.5422v9.7712z" fill="black"/><path id="Vector_2" data-node-id="1:2284" d="M23.6513,12.159c-0.8916,0 -1.1325,-0.3183 -1.1325,-1.1315v-4.3375h1.6385v-2.1334h-1.6385v-2.3809h-2.6025v2.3809h-3.3614v-0.5894c0,-0.825 0.3253,-1.1315 1.2409,-1.1315h0.5663v-1.9094h-1.253c-2.1567,0 -3.1687,0.66 -3.1687,2.6991v0.9312h-1.4458v2.1334h1.4458v7.6377h2.6024v-7.6377h3.3615v4.7854c0,1.9919 0.8072,2.8523 2.9157,2.8523h1.3494v-2.1687z" fill="black"/><path id="Vector_3" data-node-id="1:2285" d="M33.003,8.5642c-0.1807,-1.273 -1.2771,-2.0274 -2.5663,-2.0274c-1.2771,0 -2.3374,0.7426 -2.6024,2.0274zM27.8102,10.0846c0.1928,1.4498 1.2771,2.2631 2.6747,2.2631c1.0964,0 1.9398,-0.4951 2.4458,-1.273h2.6747c-0.6265,2.0745 -2.5904,3.4064 -5.1687,3.4064c-3.1205,0 -5.3133,-2.0745 -5.3133,-5.0212c0,-2.9466 2.3133,-5.08 5.3735,-5.08c3.0844,0 5.3133,2.1452 5.3133,5.08c0,0.2122 -0.0241,0.4244 -0.0602,0.6247z" fill="black"/><path id="Vector_4" data-node-id="1:2286" d="M52.3835,9.4364c0,-1.5794 -1.2651,-2.7935 -2.8072,-2.7935c-1.5543,0 -2.8073,1.1787 -2.8073,2.7935c0,1.603 1.2651,2.7934 2.8073,2.7934c1.5421,0.0118 2.8072,-1.2022 2.8072,-2.7934zM44.1907,4.5567h2.5422v1.2729c0.7711,-0.8957 1.9036,-1.4497 3.265,-1.4497c2.7952,0 4.988,2.1687 4.988,5.0447c0,2.8759 -2.2289,5.0683 -5.0482,5.0683c-1.3012,0 -2.3735,-0.4951 -3.1205,-1.3084v5.1744h-2.6265z" fill="black"/><path id="Vector_5" data-node-id="1:2287" d="M64.1523,9.4364c0,-1.6384 -1.2651,-2.7935 -2.8072,-2.7935c-1.5543,0 -2.8073,1.1787 -2.8073,2.7935c0,1.603 1.2651,2.7934 2.8073,2.7934c1.5421,0.0118 2.8072,-1.1433 2.8072,-2.7934zM64.1764,14.3279v-1.273c-0.7711,0.884 -1.9036,1.4262 -3.2651,1.4262c-2.8313,0 -4.988,-2.1452 -4.988,-5.0447c0,-2.876 2.229,-5.0565 5.0483,-5.0565c1.3253,0 2.4458,0.5422 3.2048,1.4026v-1.2258h2.5422v9.7712z" fill="black"/><path id="Vector_6" data-node-id="1:2288" d="M39.5959,5.5114c0,0 0.6506,-1.1315 2.2289,-1.1315c0.6747,0 1.1205,0.2239 1.1205,0.2239v2.4988c0,0 -0.9518,-0.554 -1.8314,-0.4479c-0.8795,0.1179 -1.4337,0.8722 -1.4337,1.8977v5.7872h-2.6265v-9.7829h2.5422z" fill="black"/><path id="Vector_7" data-node-id="1:2289" d="M78.5999,4.5566l-6.4217,13.7669h-2.7109l2.5181,-5.3158l-4.2651,-8.4393h3.0723l2.494,5.6459l2.5543,-5.6459h2.759z" fill="black"/><path id="Vector_8" data-node-id="1:2290" d="M99.103,4.3328l-6.374,-3.4771c-1.867,-1.0136 -4.205,0.2593 -4.205,2.2984v0.3536c0,0.3183 0.181,0.6247 0.482,0.778l1.205,0.66c0.35,0.1886 0.795,-0.0471 0.795,-0.4361v-0.884c0,-0.4479 0.506,-0.719 0.916,-0.495l5.518,3.0056c0.41,0.2239 0.41,0.7779 0,0.99l-5.518,3.0057c-0.41,0.2239 -0.916,-0.059 -0.916,-0.4951v-0.4715c0,-2.0391 -2.337,-3.312 -4.205,-2.2984l-6.361,3.4771c-1.8675,1.0137 -1.8675,3.5714 0,4.585l6.361,3.4771c1.868,1.0137 4.205,-0.2593 4.205,-2.2984v-0.3536c0,-0.3182 -0.18,-0.6129 -0.482,-0.7779l-1.204,-0.6601c-0.35,-0.1886 -0.796,0.0472 -0.796,0.4361v0.884c0,0.4479 -0.506,0.719 -0.915,0.4951l-5.5184,-3.0056c-0.4096,-0.224 -0.4096,-0.7779 0,-1.0019l5.5184,-2.9938c0.409,-0.224 0.915,0.0589 0.915,0.495v0.4715c0,2.0391 2.338,3.3121 4.205,2.2984l6.362,-3.4771c1.879,-1.0136 1.879,-3.5596 0.012,-4.585z" fill="black"/></g><g id="X-afterpay-popup" data-node-id="1:2291"><rect id="Rectangle 9385" data-node-id="1:2292" x="367.086" y="3.2670999999999992" width="2" height="16" transform="rotate(45, 367.086, 3.2670999999999992)" fill="black"/><rect id="Rectangle 9386" data-node-id="1:2293" x="368.5" y="14.5811" width="2" height="16" transform="rotate(135, 368.5, 14.5811)" fill="black"/></g></g></svg>