<svg viewBox="0 0 46.5054 12.82" x="0" y="0" fill="none" xmlns="http://www.w3.org/2000/svg"><defs><clipPath id="clip4_1_1056" xmlns="http://www.w3.org/2000/svg"><rect width="46" height="24" fill="white" transform="translate(0.005400000000001626, -5.710000000000036)"/></clipPath></defs><g id="Frame 149286310" data-node-id="1:1141" clip-path="url(#clip4_1_1056)" xmlns="http://www.w3.org/2000/svg"><path id="Text 25_2" data-node-id="1:1142" d="M8.7254,11.11v1.21h-7.136l-0.256,-0.83c0.448,-0.5 0.7787,-0.98 0.992,-1.44c0.224,-0.46 0.336,-1.02 0.336,-1.7c0,-0.27 -0.048,-0.6 -0.144,-0.99h-1.808v-1.02h1.456c-0.1387,-0.38 -0.2453,-0.73 -0.32,-1.06c-0.0747,-0.34 -0.112,-0.71 -0.112,-1.12c0,-0.68 0.144,-1.27 0.432,-1.77c0.2987,-0.52 0.7093,-0.91 1.232,-1.19c0.5333,-0.28 1.1413,-0.41 1.824,-0.41c1.088,0 1.9253,0.31 2.512,0.94c0.5867,0.63 0.9013,1.42 0.944,2.38h-1.344c-0.0213,-0.63 -0.2133,-1.13 -0.576,-1.52c-0.352,-0.38 -0.864,-0.57 -1.536,-0.57c-0.6187,0 -1.1253,0.18 -1.52,0.54c-0.384,0.36 -0.576,0.92 -0.576,1.67c0,0.35 0.0373,0.68 0.112,1c0.0747,0.31 0.1867,0.68 0.336,1.11h3.104v1.02h-2.784c0.096,0.39 0.144,0.72 0.144,0.99c0,1.02 -0.3787,1.93 -1.136,2.76zM10.5353,2.05v-1.33h3.008v11.57h-1.472v-10.24zM16.0443,6.39c0,-1.84 0.2986,-3.27 0.896,-4.29c0.5973,-1.04 1.6426,-1.55 3.136,-1.55c1.4826,0 2.5226,0.51 3.12,1.55c0.5973,1.02 0.896,2.45 0.896,4.29c0,1.86 -0.2987,3.31 -0.896,4.35c-0.5974,1.03 -1.6374,1.55 -3.12,1.55c-1.4934,0 -2.5387,-0.52 -3.136,-1.55c-0.5974,-1.04 -0.896,-2.49 -0.896,-4.35zM22.6523,6.39c0,-0.93 -0.064,-1.72 -0.192,-2.36c-0.1174,-0.65 -0.368,-1.17 -0.752,-1.56c-0.3734,-0.4 -0.9174,-0.6 -1.632,-0.6c-0.7254,0 -1.28,0.2 -1.664,0.6c-0.3734,0.39 -0.624,0.91 -0.752,1.56c-0.1174,0.64 -0.176,1.43 -0.176,2.36c0,0.96 0.0586,1.76 0.176,2.41c0.128,0.65 0.3786,1.18 0.752,1.57c0.384,0.39 0.9386,0.59 1.664,0.59c0.7146,0 1.2586,-0.2 1.632,-0.59c0.384,-0.39 0.6346,-0.92 0.752,-1.57c0.128,-0.65 0.192,-1.45 0.192,-2.41zM27.9632,9.19c0.1066,0.6 0.352,1.07 0.736,1.4c0.3946,0.33 0.9226,0.5 1.584,0.5c0.8853,0 1.536,-0.35 1.952,-1.04c0.4266,-0.69 0.6293,-1.86 0.608,-3.5c-0.224,0.48 -0.5974,0.85 -1.12,1.13c-0.5227,0.27 -1.104,0.4 -1.744,0.4c-0.7147,0 -1.3547,-0.14 -1.92,-0.43c-0.5547,-0.3 -0.992,-0.73 -1.312,-1.3c-0.32,-0.56 -0.48,-1.24 -0.48,-2.04c0,-1.15 0.3306,-2.06 0.992,-2.76c0.6613,-0.7 1.6,-1.05 2.816,-1.05c1.4933,0 2.5386,0.48 3.136,1.45c0.608,0.97 0.912,2.42 0.912,4.34c0,1.34 -0.1227,2.45 -0.368,3.33c-0.2347,0.87 -0.64,1.54 -1.216,2c-0.5654,0.46 -1.344,0.69 -2.336,0.69c-1.088,0 -1.936,-0.3 -2.544,-0.88c-0.608,-0.59 -0.9547,-1.34 -1.04,-2.24zM30.2192,6.85c0.7146,0 1.3013,-0.22 1.76,-0.66c0.4586,-0.44 0.688,-1.05 0.688,-1.8c0,-0.8 -0.224,-1.45 -0.672,-1.94c-0.448,-0.49 -1.0774,-0.74 -1.888,-0.74c-0.7467,0 -1.344,0.24 -1.792,0.71c-0.4374,0.47 -0.656,1.09 -0.656,1.85c0,0.78 0.2186,1.41 0.656,1.88c0.4373,0.47 1.072,0.7 1.904,0.7zM38.0413,9.19c0.1066,0.6 0.352,1.07 0.736,1.4c0.3946,0.33 0.9226,0.5 1.584,0.5c0.8853,0 1.536,-0.35 1.952,-1.04c0.4266,-0.69 0.6293,-1.86 0.608,-3.5c-0.224,0.48 -0.5974,0.85 -1.12,1.13c-0.5227,0.27 -1.104,0.4 -1.744,0.4c-0.7147,0 -1.3547,-0.14 -1.92,-0.43c-0.5547,-0.3 -0.992,-0.73 -1.312,-1.3c-0.32,-0.56 -0.48,-1.24 -0.48,-2.04c0,-1.15 0.3306,-2.06 0.992,-2.76c0.6613,-0.7 1.6,-1.05 2.816,-1.05c1.4933,0 2.5386,0.48 3.136,1.45c0.608,0.97 0.912,2.42 0.912,4.34c0,1.34 -0.1227,2.45 -0.368,3.33c-0.2347,0.87 -0.64,1.54 -1.216,2c-0.5654,0.46 -1.344,0.69 -2.336,0.69c-1.088,0 -1.936,-0.3 -2.544,-0.88c-0.608,-0.59 -0.9547,-1.34 -1.04,-2.24zM40.2973,6.85c0.7146,0 1.3013,-0.22 1.76,-0.66c0.4586,-0.44 0.688,-1.05 0.688,-1.8c0,-0.8 -0.224,-1.45 -0.672,-1.94c-0.448,-0.49 -1.0774,-0.74 -1.888,-0.74c-0.7467,0 -1.344,0.24 -1.792,0.71c-0.4374,0.47 -0.656,1.09 -0.656,1.85c0,0.78 0.2186,1.41 0.656,1.88c0.4373,0.47 1.072,0.7 1.904,0.7z" fill="#1F1F1F"/><path id="Vector 6_2" data-node-id="1:1143" d="M0.0054,5.29l46.5,0.5l-34.5,2.5l40,1.5" stroke="#FF4053"/></g></svg>