<svg viewBox="0 0 75 15" x="0" y="0" fill="none" xmlns="http://www.w3.org/2000/svg"><g id="Group" data-node-id="1:1090" xmlns="http://www.w3.org/2000/svg"><path id="Rectangle-path" data-node-id="1:1091" d="M14.5,0.5h-14v14h14z" fill="#00B67A"/><path id="Rectangle-path_2" data-node-id="1:1092" d="M29.5,0.5h-14v14h14z" fill="#00B67A"/><path id="Rectangle-path_3" data-node-id="1:1093" d="M44.5,0.5h-14v14h14z" fill="#00B67A"/><path id="Rectangle-path_4" data-node-id="1:1094" d="M59.5,0.5h-14v14h14z" fill="#00B67A"/><path id="Rectangle-path_5" data-node-id="1:1095" d="M74.5,0.5h-14v14h14z" fill="#00B67A"/><path id="Shape" data-node-id="1:1096" d="M7.513,9.932l2.134,-0.539l0.892,2.741zM12.425,6.389h-3.757l-1.155,-3.53l-1.155,3.53h-3.757l3.041,2.187l-1.155,3.529l3.041,-2.187l1.871,-1.342z" fill="#D5D5D5"/><path id="Shape_2" data-node-id="1:1097" d="M22.716,9.932l2.134,-0.539l0.892,2.741zM27.628,6.389h-3.757l-1.155,-3.53l-1.155,3.53h-3.757l3.041,2.187l-1.155,3.529l3.041,-2.187l1.871,-1.342z" fill="#D5D5D5"/><path id="Shape_3" data-node-id="1:1098" d="M37.919,9.932l2.134,-0.539l0.892,2.741zM42.831,6.389h-3.757l-1.155,-3.53l-1.155,3.53h-3.757l3.041,2.187l-1.155,3.529l3.041,-2.187l1.871,-1.342z" fill="#D5D5D5"/><path id="Shape_4" data-node-id="1:1099" d="M53.122,9.932l2.135,-0.539l0.891,2.741zM58.034,6.389h-3.757l-1.155,-3.53l-1.155,3.53h-3.756l3.04,2.187l-1.155,3.529l3.041,-2.187l1.871,-1.342z" fill="#D5D5D5"/><path id="Shape_5" data-node-id="1:1100" d="M68.325,9.932l2.135,-0.539l0.891,2.741zM73.237,6.389h-3.757l-1.155,-3.53l-1.154,3.53h-3.757l3.04,2.187l-1.155,3.529l3.041,-2.187l1.871,-1.342z" fill="#D5D5D5"/></g></svg>